HIERARCHY
ROOT SpineBase
{
  OFFSET 0.000000 0.000000 0.000000
  CHANNELS 6 Xposition Yposition Zposition Zrotation Xrotation Yrotation
  JOINT SpineMid
  {
    OFFSET 0.000000 31.332460 0.000000
    CHANNELS 3 Zrotation Xrotation Yrotation
    JOINT SpineShoulder
    {
      OFFSET -0.001840 23.237824 -0.776500
      CHANNELS 3 Zrotation Xrotation Yrotation
      JOINT Neck
      {
        OFFSET -0.017200 7.678305 -0.581140
        CHANNELS 3 Zrotation Xrotation Yrotation
        JOINT Head
        {
          OFFSET -2.432277 13.095019 -0.542387
          CHANNELS 3 Zrotation Xrotation Yrotation
          End Site
          {
            OFFSET 0 0 0
          }
        }
      }
      JOINT ShoulderLeft
      {
        OFFSET -18.310277 -3.984518 4.714669
        CHANNELS 3 Zrotation Xrotation Yrotation
        JOINT ElbowLeft
        {
          OFFSET -2.297292 -25.221913 0.287943
          CHANNELS 3 Zrotation Xrotation Yrotation
          JOINT WristLeft
          {
            OFFSET 2.786060 -21.541592 -8.119873
            CHANNELS 3 Zrotation Xrotation Yrotation
            JOINT HandLeft
            {
              OFFSET 2.418130 -5.186611 -1.541346
              CHANNELS 3 Zrotation Xrotation Yrotation
              JOINT HandTipLeft
              {
                OFFSET 1.265973 -5.478695 -2.907291
                CHANNELS 3 Zrotation Xrotation Yrotation
                End Site
                {
                  OFFSET 0 0 0
                }
              }
              JOINT ThumbLeft
              {
                OFFSET 2.937650 1.642178 -1.334961
                CHANNELS 3 Zrotation Xrotation Yrotation
                End Site
                {
                  OFFSET 0 0 0
                }
              }
            }
          }
        }
      }
      JOINT ShoulderRight
      {
        OFFSET 17.130225 -1.839853 -4.201269
        CHANNELS 3 Zrotation Xrotation Yrotation
        JOINT ElbowRight
        {
          OFFSET 6.223239 -24.497973 0.390664
          CHANNELS 3 Zrotation Xrotation Yrotation
          JOINT WristRight
          {
            OFFSET -2.543701 -18.263070 -6.469442
            CHANNELS 3 Zrotation Xrotation Yrotation
            JOINT HandRight
            {
              OFFSET -2.538674 -6.242808 -1.375859
              CHANNELS 3 Zrotation Xrotation Yrotation
              JOINT HandTipRight
              {
                OFFSET -1.622759 -7.025874 -3.364816
                CHANNELS 3 Zrotation Xrotation Yrotation
                End Site
                {
                  OFFSET 0 0 0
                }
              }
              JOINT ThumbRight
              {
                OFFSET -3.150251 3.176287 0.159356
                CHANNELS 3 Zrotation Xrotation Yrotation
                End Site
                {
                  OFFSET 0 0 0
                }
              }
            }
          }
        }
      }
    }
  }
  JOINT HipLeft
  {
    OFFSET -7.498711 0.449382 -1.618426
    CHANNELS 3 Zrotation Xrotation Yrotation
    JOINT KneeLeft
    {
      OFFSET 0.441380 -32.552435 3.794599
      CHANNELS 3 Zrotation Xrotation Yrotation
      JOINT AnkleLeft
      {
        OFFSET 2.844675 -32.940605 8.686620
        CHANNELS 3 Zrotation Xrotation Yrotation
        JOINT FootLeft
        {
          OFFSET -2.243804 -3.135477 -13.169476
          CHANNELS 3 Zrotation Xrotation Yrotation
          End Site
          {
            OFFSET 0 0 0
          }
        }
      }
    }
  }
  JOINT HipRight
  {
    OFFSET 7.030336 1.474228 -5.226696
    CHANNELS 3 Zrotation Xrotation Yrotation
    JOINT KneeRight
    {
      OFFSET 7.169357 -30.564049 0.928976
      CHANNELS 3 Zrotation Xrotation Yrotation
      JOINT AnkleRight
      {
        OFFSET 4.895145 -33.277019 12.469043
        CHANNELS 3 Zrotation Xrotation Yrotation
        JOINT FootRight
        {
          OFFSET -2.486373 -3.155908 -13.156610
          CHANNELS 3 Zrotation Xrotation Yrotation
          End Site
          {
            OFFSET 0 0 0
          }
        }
      }
    }
  }
}
MOTION
Frames: 10
Frame Time: 0.033333
16.687682 71.466668 289.776978 4.188243 -0.976810 11.823687 0.079091 -0.069111 -11.643877 0.000863 -0.047050 0.180261 0.571511 3.405285 0.158933 0.000000 0.000000 0.000000 -7.839415 -4.117321 0.061046 23.613782 30.547635 -9.921250 21.540054 -0.218926 7.554641 -24.554115 2.766161 -5.898995 0.000000 0.000000 0.000000 0.000000 0.000000 0.000000 0.198575 -0.914442 -0.717662 0.790272 1.002824 -1.380209 -10.862738 -1.629179 3.887109 11.030339 -4.489848 -3.377577 0.000000 0.000000 0.000000 0.000000 0.000000 0.000000 -7.726146 9.961208 -11.865055 -2.718539 -9.606894 -2.668568 8.648643 2.533444 -0.442038 0.000000 0.000000 0.000000 -0.252449 1.004844 -11.713741 -0.373716 -0.618898 1.071060 -2.810922 0.419063 -3.197933 0.000000 0.000000 0.000000
14.589687 70.991498 289.622787 5.750959 -0.950881 10.525606 -0.218770 0.009254 -10.289557 -0.079451 -0.042767 0.228317 1.066319 3.685078 0.128979 0.000000 0.000000 0.000000 -7.697688 -3.111234 -0.044505 24.897302 27.842893 -11.053534 23.464911 1.180581 6.938005 -27.362503 -0.075424 -6.216392 0.000000 0.000000 0.000000 0.000000 0.000000 0.000000 0.558767 -1.188073 -0.813586 1.313956 1.072396 -2.108932 -10.948431 -0.277141 3.712273 10.797417 -7.102993 -2.580105 0.000000 0.000000 0.000000 0.000000 0.000000 0.000000 -8.935919 9.886144 -10.490047 -4.533648 -9.549331 -3.269335 10.159538 2.767425 -1.625929 0.000000 0.000000 0.000000 -0.644958 1.156005 -10.351968 0.035291 -0.842917 1.596608 -4.078833 0.701823 -5.108345 0.000000 0.000000 0.000000
12.304773 70.551508 289.390140 7.231674 -0.866856 9.225845 -0.415630 0.036618 -8.938007 0.085953 -0.068310 0.295944 1.897525 4.143040 0.092236 0.000000 0.000000 0.000000 -7.381840 -2.103899 -0.182920 25.949132 24.906330 -12.162780 23.096815 2.782733 6.388382 -27.822641 -0.574769 -6.623899 0.000000 0.000000 0.000000 0.000000 0.000000 0.000000 0.694784 -1.608634 -0.944395 1.637130 1.258507 -2.762689 -10.556188 1.127114 3.346920 10.208304 -9.656405 -1.577480 0.000000 0.000000 0.000000 0.000000 0.000000 0.000000 -10.127942 9.832836 -9.130017 -5.263627 -9.879734 -3.501591 10.667695 3.171450 -3.019869 0.000000 0.000000 0.000000 -1.179177 1.095080 -9.023053 0.883156 -0.876013 2.258610 -5.595620 0.990747 -7.101224 0.000000 0.000000 0.000000
10.019577 70.208029 289.108419 9.277892 -0.817683 8.062450 -0.405341 0.029860 -7.694001 -0.050004 -0.014229 0.371159 1.268214 4.430749 0.003666 0.000000 0.000000 0.000000 -7.107446 -1.197975 -0.373877 24.979160 22.161344 -12.294306 24.909967 2.383157 5.423345 -29.390105 -1.486089 -5.958980 0.000000 0.000000 0.000000 0.000000 0.000000 0.000000 1.070628 -2.428150 -1.130230 1.391081 1.943450 -3.473066 -9.397710 1.347010 3.214871 8.307497 -11.945739 -0.484572 0.000000 0.000000 0.000000 0.000000 0.000000 0.000000 -11.603812 9.770683 -7.882801 -5.385907 -10.298241 -3.433155 10.324742 3.653969 -4.654719 0.000000 0.000000 0.000000 -2.406305 0.948377 -7.854154 1.843675 -0.683049 2.950466 -7.087590 1.302770 -9.155286 0.000000 0.000000 0.000000
7.992872 70.033158 288.792743 11.503230 -0.837245 6.849706 -0.307236 0.037551 -6.388050 -0.384153 0.032733 0.442982 0.077578 4.428541 -0.130340 0.000000 0.000000 0.000000 -6.471401 -0.409394 -0.578271 23.269283 19.455623 -12.278213 25.005873 0.619843 4.643451 -28.842373 1.110858 -4.761425 0.000000 0.000000 0.000000 0.000000 0.000000 0.000000 1.268610 -3.404497 -1.328322 0.982654 2.935743 -4.097607 -8.278606 2.496406 2.579813 7.231930 -14.514694 0.840296 0.000000 0.000000 0.000000 0.000000 0.000000 0.000000 -13.163696 9.702596 -6.572551 -4.900844 -10.916507 -3.109880 9.241325 4.277759 -6.233044 0.000000 0.000000 0.000000 -3.926295 0.759709 -6.641455 2.648422 -0.319083 3.548893 -8.346750 1.534496 -10.939968 0.000000 0.000000 0.000000
6.269226 69.907010 288.461803 13.955073 -0.958085 5.345799 -0.099383 0.001258 -4.761721 -0.549013 0.002530 0.548399 -1.699119 4.510792 -0.330928 0.000000 0.000000 0.000000 -7.650491 0.181051 -0.786574 23.360258 18.414317 -12.780041 28.630964 -3.895105 4.351580 -32.404549 5.591635 -2.132139 0.000000 0.000000 0.000000 0.000000 0.000000 0.000000 1.657461 -3.773072 -1.475436 0.537558 3.139266 -4.968792 -8.963703 3.732272 2.432667 7.937938 -17.345191 1.900956 0.000000 0.000000 0.000000 0.000000 0.000000 0.000000 -15.223955 9.499536 -4.955996 -4.545438 -11.520743 -2.886526 8.624721 5.106700 -8.264630 0.000000 0.000000 0.000000 -5.573745 0.579610 -5.119076 2.995261 0.469613 4.022062 -9.138751 1.378446 -13.201827 0.000000 0.000000 0.000000
4.943442 69.856301 288.194992 15.990513 -1.097623 3.143279 0.210695 0.003859 -2.448586 -0.762162 0.049348 0.628876 -5.705636 4.960454 -0.431625 0.000000 0.000000 0.000000 -9.481749 0.406868 -0.934756 24.260645 18.655151 -13.379423 34.957105 -8.681248 4.814533 -38.299520 11.256690 0.797810 0.000000 0.000000 0.000000 0.000000 0.000000 0.000000 1.751599 -4.096523 -1.582902 0.988606 3.219411 -5.991357 -10.147925 4.123330 2.778605 8.855361 -20.195665 2.914642 0.000000 0.000000 0.000000 0.000000 0.000000 0.000000 -17.091420 8.918151 -2.690521 -3.902579 -12.151504 -2.569096 7.873570 6.054253 -10.398509 0.000000 0.000000 0.000000 -6.518142 0.561977 -2.847594 2.625315 1.257588 4.298630 -9.488342 0.859594 -15.465633 0.000000 0.000000 0.000000
4.203788 69.954469 288.030679 17.554914 -1.350692 0.482502 0.671074 0.062531 0.321205 -0.975327 0.136826 0.689424 -5.980607 4.372179 -0.638433 0.000000 0.000000 0.000000 -12.007082 0.056251 -0.962503 22.137285 20.697892 -12.267191 45.528399 -9.592790 4.722383 -45.543366 13.471487 2.048156 0.000000 0.000000 0.000000 0.000000 0.000000 0.000000 1.709651 -4.596071 -1.704551 1.654635 3.764543 -7.003502 -11.968082 4.196476 3.286686 8.629971 -22.168805 4.026553 0.000000 0.000000 0.000000 0.000000 0.000000 0.000000 -18.986697 8.111400 -0.009980 -3.289684 -12.588245 -2.355574 7.564374 6.863450 -12.150120 0.000000 0.000000 0.000000 -6.950032 0.756283 -0.088492 1.506340 2.020540 4.309944 -9.221086 0.015024 -17.254464 0.000000 0.000000 0.000000
3.798158 69.837969 287.932370 18.771667 -1.519656 -4.065447 0.802103 0.225802 4.937163 -1.222725 0.225909 0.717574 -5.448512 4.542910 -0.711640 0.000000 0.000000 0.000000 -14.912327 0.427216 -1.063139 25.690332 20.982693 -13.099176 54.695846 -17.185524 7.667774 -52.985184 21.327237 6.621753 0.000000 0.000000 0.000000 0.000000 0.000000 0.000000 1.715686 -4.700500 -1.732746 2.317419 4.086472 -7.877563 -12.769204 2.358881 4.397200 9.376746 -22.255152 3.403118 0.000000 0.000000 0.000000 0.000000 0.000000 0.000000 -20.685723 5.718944 4.343884 -3.318650 -11.955617 -2.328074 8.085909 7.367226 -14.350972 0.000000 0.000000 0.000000 -7.138698 1.066027 4.578823 0.276007 2.685379 4.234685 -8.715403 -1.192444 -19.619470 0.000000 0.000000 0.000000
3.445869 69.652973 287.815756 18.861376 -1.437908 -10.878138 1.067253 0.370862 11.746787 -1.327587 0.278478 0.718180 -2.983989 2.857195 -0.814492 0.000000 0.000000 0.000000 -17.709700 0.443353 -1.091532 32.338158 21.514348 -15.321789 55.810519 -19.774880 10.553405 -48.101588 27.114428 2.952092 0.000000 0.000000 0.000000 0.000000 0.000000 0.000000 1.309806 -3.931790 -1.668454 3.754755 3.495122 -8.603828 -14.692571 -2.089871 7.033036 10.183129 -19.385682 0.432936 0.000000 0.000000 0.000000 0.000000 0.000000 0.000000 -20.296086 1.503608 10.711019 -4.542678 -10.080181 -2.494325 9.272459 7.552091 -16.845493 0.000000 0.000000 0.000000 -5.819738 1.512778 11.498783 -2.093251 3.190167 3.881662 -7.552882 -2.679869 -22.182057 0.000000 0.000000 0.000000
